<svg width="76" height="76" viewBox="0 0 76 76" fill="none" xmlns="http://www.w3.org/2000/svg">
<rect width="76" height="76" rx="6" fill="#F5F5F5"/>
<path d="M36.6724 39.3271H30.9228C30.5504 39.3271 30.2361 39.199 29.9799 38.9429C29.7238 38.6867 29.5957 38.3724 29.5957 38C29.5957 37.6276 29.7238 37.3133 29.9799 37.0572C30.2361 36.801 30.5504 36.6729 30.9228 36.6729H36.6724V30.9233C36.6724 30.5509 36.8005 30.2366 37.0567 29.9804C37.3128 29.7243 37.6271 29.5962 37.9995 29.5962C38.3719 29.5962 38.6862 29.7243 38.9424 29.9804C39.1985 30.2366 39.3266 30.5509 39.3266 30.9233V36.6729H45.0762C45.4487 36.6729 45.7629 36.801 46.0191 37.0572C46.2753 37.3133 46.4033 37.6276 46.4033 38C46.4033 38.3724 46.2753 38.6867 46.0191 38.9429C45.7629 39.199 45.4487 39.3271 45.0762 39.3271H39.3266V45.0767C39.3266 45.4491 39.1985 45.7634 38.9424 46.0196C38.6862 46.2758 38.3719 46.4038 37.9995 46.4038C37.6271 46.4038 37.3128 46.2758 37.0567 46.0196C36.8005 45.7634 36.6724 45.4491 36.6724 45.0767V39.3271Z" fill="#5534DA"/>
</svg>
