<svg width="17" height="18" viewBox="0 0 17 18" fill="none" xmlns="http://www.w3.org/2000/svg">
<path d="M6.109 12.6155C4.40132 12.6155 2.95518 12.0232 1.77058 10.8386C0.585961 9.65395 -0.00634766 8.2078 -0.00634766 6.50012C-0.00634766 4.79243 0.585961 3.34628 1.77058 2.16167C2.95518 0.977065 4.40132 0.384766 6.109 0.384766C7.81669 0.384766 9.26284 0.977065 10.4475 2.16167C11.6321 3.34628 12.2244 4.79243 12.2244 6.50012C12.2244 7.21422 12.1045 7.89627 11.8648 8.54627C11.625 9.19627 11.3051 9.76165 10.9051 10.2424L16.659 15.9963C16.7975 16.1347 16.8683 16.3088 16.8715 16.5184C16.8747 16.728 16.8039 16.9052 16.659 17.0501C16.5141 17.195 16.3385 17.2674 16.1321 17.2674C15.9257 17.2674 15.75 17.195 15.6052 17.0501L9.8513 11.2962C9.3513 11.7091 8.7763 12.0321 8.1263 12.2655C7.4763 12.4988 6.80387 12.6155 6.109 12.6155ZM6.109 11.1155C7.39747 11.1155 8.48882 10.6684 9.38305 9.77417C10.2773 8.87993 10.7244 7.78858 10.7244 6.50012C10.7244 5.21165 10.2773 4.1203 9.38305 3.22607C8.48882 2.33183 7.39747 1.88472 6.109 1.88472C4.82054 1.88472 3.72919 2.33183 2.83495 3.22607C1.94074 4.1203 1.49363 5.21165 1.49363 6.50012C1.49363 7.78858 1.94074 8.87993 2.83495 9.77417C3.72919 10.6684 4.82054 11.1155 6.109 11.1155Z" fill="#333236"/>
</svg>
